<svg width="281" height="173" viewBox="0 0 281 173" fill="none" xmlns="http://www.w3.org/2000/svg">
<path d="M95.0491 155.667V65.4355H230.341V155.667C175.77 170.028 145.642 169.495 95.0491 155.667Z" fill="black" stroke="black" stroke-width="12"/>
<path d="M163.964 3.68262L51.2251 71.3388L163.964 138.995L274.437 71.3388L163.964 3.68262Z" fill="black"/>
<path d="M51.2251 71.3388L163.964 3.68262L274.437 71.3388L163.964 138.995L51.2251 71.3388ZM51.2251 71.3388C14.061 71.3388 15.3451 116.443 20.6326 138.995" stroke="black" stroke-width="6"/>
<path d="M51.2251 71.3388L163.964 3.68262L274.437 71.3388L163.964 138.995L51.2251 71.3388ZM51.2251 71.3388C14.061 71.3388 15.3451 116.443 20.6326 138.995" stroke="white" stroke-width="6"/>
<path d="M52.9581 60.8945L36.0235 73.1391L52.6299 84.6243C52.7443 84.6937 52.8538 84.7693 52.9581 84.8513L52.6299 84.6243C47.2073 81.337 30.6126 92.1081 18.9736 105.867C13.7809 137.757 26.2709 168.117 8.92811 139.153C3.43476 129.979 9.59548 116.953 18.9736 105.867C21.8936 87.934 30.4053 69.5174 52.9581 60.8945Z" fill="black" stroke="black" stroke-width="12"/>
</svg>
