<svg width="197" height="166" viewBox="0 0 197 166" fill="none" xmlns="http://www.w3.org/2000/svg">
<rect x="111.768" y="38.5552" width="82.732" height="124.945" stroke="white" stroke-width="5"/>
<rect x="2.5" y="2.64941" width="108.479" height="160.851" stroke="white" stroke-width="5"/>
<line x1="20.0254" y1="25.0063" x2="46.7264" y2="25.0063" stroke="white" stroke-width="5"/>
<line x1="65.7988" y1="25.0063" x2="92.4999" y2="25.0063" stroke="white" stroke-width="5"/>
<line x1="20.0254" y1="48.0884" x2="46.7264" y2="48.0884" stroke="white" stroke-width="5"/>
<line x1="65.7988" y1="48.0884" x2="92.4999" y2="48.0884" stroke="white" stroke-width="5"/>
<line x1="20.0254" y1="72.8804" x2="46.7264" y2="72.8804" stroke="white" stroke-width="5"/>
<line x1="65.7988" y1="72.8804" x2="92.4999" y2="72.8804" stroke="white" stroke-width="5"/>
<line x1="20.0254" y1="99.3823" x2="46.7264" y2="99.3823" stroke="white" stroke-width="5"/>
<line x1="65.7988" y1="99.3823" x2="92.4999" y2="99.3823" stroke="white" stroke-width="5"/>
<rect x="49.2266" y="129.175" width="14.0722" height="34.3254" stroke="white" stroke-width="5"/>
<line x1="132.83" y1="57.0728" x2="174.789" y2="57.0728" stroke="white" stroke-width="5"/>
<line x1="132.83" y1="73.3159" x2="174.789" y2="74.1708" stroke="white" stroke-width="5"/>
<line x1="132.83" y1="88.7041" x2="174.789" y2="89.559" stroke="white" stroke-width="5"/>
<line x1="132.83" y1="104.092" x2="174.789" y2="104.947" stroke="white" stroke-width="5"/>
<line x1="132.83" y1="122.045" x2="174.789" y2="122.9" stroke="white" stroke-width="5"/>
<line x1="132.83" y1="139.143" x2="174.789" y2="139.998" stroke="white" stroke-width="5"/>
</svg>
