<svg width="110" height="93" viewBox="0 0 110 93" fill="none" xmlns="http://www.w3.org/2000/svg">
<path d="M73.7072 2.1161H75.625C85.7126 2.1161 94.25 11.4361 94.25 23.3371C94.25 35.2381 85.7126 44.5581 75.625 44.5581C73.6636 44.5581 71.8017 44.0551 69.8539 43.2266C70.4517 40.5738 70.75 37.879 70.75 34.9476C70.75 25.1568 67.2724 16.5136 61.3823 9.98708C64.4345 5.60923 68.7832 2.71633 73.7072 2.1161ZM108 62V79.2734H84.5V73.6105C84.5 68.5485 82.8769 63.8539 80.2219 59.7793C87.9517 58.8346 94.8241 55.5816 100.169 50.6141C104.965 53.081 108 57.3653 108 62ZM15.75 34.8315C15.75 22.9305 24.2874 13.6105 34.375 13.6105C44.4626 13.6105 53 22.9305 53 34.8315C53 46.7325 44.4626 56.0524 34.375 56.0524C24.2874 56.0524 15.75 46.7325 15.75 34.8315ZM2 73.7266C2 69.0612 5.07485 64.7508 9.92698 62.2919C16.3642 68.1175 24.8533 71.6629 34.375 71.6629C43.8818 71.6629 52.381 68.2317 58.8342 62.2976C63.6799 64.7574 66.75 69.0648 66.75 73.7266V91H2V73.7266Z" stroke="white" stroke-width="4"/>
</svg>
