<svg width="178" height="140" viewBox="0 0 178 140" fill="none" xmlns="http://www.w3.org/2000/svg">
<path d="M5 135.032V127.383C5 97.8126 28.9719 73.8408 58.5426 73.8408C88.1134 73.8408 112.085 97.8126 112.085 127.383V135.032" stroke="white" stroke-width="9" stroke-linecap="round"/>
<path d="M96.7871 89.1383C96.7871 68.0165 113.91 50.8936 135.032 50.8936C156.154 50.8936 173.277 68.0165 173.277 89.1383V92.9628" stroke="white" stroke-width="9" stroke-linecap="round"/>
<path d="M58.543 73.841C75.4403 73.841 89.1388 60.1425 89.1388 43.2452C89.1388 26.3476 75.4403 12.6494 58.543 12.6494C41.6455 12.6494 27.9473 26.3476 27.9473 43.2452C27.9473 60.1425 41.6455 73.841 58.543 73.841Z" stroke="white" stroke-width="9" stroke-linecap="round" stroke-linejoin="round"/>
<path d="M135.033 50.8937C147.706 50.8937 157.98 40.62 157.98 27.9468C157.98 15.2737 147.706 5 135.033 5C122.359 5 112.086 15.2737 112.086 27.9468C112.086 40.62 122.359 50.8937 135.033 50.8937Z" stroke="white" stroke-width="9" stroke-linecap="round" stroke-linejoin="round"/>
</svg>
