<svg width="87" height="79" viewBox="0 0 87 79" fill="none" xmlns="http://www.w3.org/2000/svg">
<path d="M24.2861 46.9715L23.6633 46.3392L22.7765 46.3768C11.4471 46.8571 2 55.2711 2 66.125V75V77H4H83H85V75V66.125C85 55.2778 75.659 46.857 64.2227 46.3768L63.3364 46.3395L62.7139 46.9715C57.7174 52.0441 50.9088 55.25 43.5 55.25C36.0912 55.25 29.2826 52.0441 24.2861 46.9715ZM43.5 2C31.3229 2 21.75 13.0579 21.75 26.1875C21.75 39.3171 31.3229 50.375 43.5 50.375C55.6771 50.375 65.25 39.3171 65.25 26.1875C65.25 13.0579 55.6771 2 43.5 2Z" stroke="#98A2B3" stroke-width="4"/>
</svg>
