<svg width="154" height="136" viewBox="0 0 154 136" fill="none" xmlns="http://www.w3.org/2000/svg">
<path d="M76.9987 81.2973C85.3146 81.2973 92.056 75.3439 92.056 68C92.056 60.6561 85.3146 54.7026 76.9987 54.7026C68.6828 54.7026 61.9414 60.6561 61.9414 68C61.9414 75.3439 68.6828 81.2973 76.9987 81.2973Z" stroke="white" stroke-width="5" stroke-linecap="round" stroke-linejoin="round"/>
<path d="M115.85 81.9091C115.151 83.3075 114.943 84.8587 115.251 86.3627C115.56 87.8667 116.372 89.2546 117.582 90.3473L117.898 90.6254C118.874 91.4866 119.648 92.5093 120.177 93.635C120.705 94.7607 120.977 95.9673 120.977 97.1859C120.977 98.4045 120.705 99.6111 120.177 100.737C119.648 101.862 118.874 102.885 117.898 103.746C116.922 104.609 115.764 105.292 114.49 105.759C113.215 106.226 111.849 106.466 110.469 106.466C109.089 106.466 107.723 106.226 106.448 105.759C105.173 105.292 104.015 104.609 103.04 103.746L102.725 103.468C101.488 102.399 99.9162 101.682 98.2131 101.41C96.51 101.137 94.7535 101.321 93.17 101.938C91.6172 102.526 90.2929 103.502 89.3601 104.746C88.4273 105.99 87.9267 107.447 87.92 108.939V109.727C87.92 112.187 86.8138 114.545 84.8446 116.284C82.8755 118.023 80.2048 119 77.42 119C74.6352 119 71.9645 118.023 69.9954 116.284C68.0262 114.545 66.92 112.187 66.92 109.727V109.31C66.8794 107.775 66.3169 106.287 65.3057 105.039C64.2945 103.79 62.8814 102.839 61.25 102.309C59.6665 101.692 57.91 101.508 56.2069 101.781C54.5038 102.053 52.9323 102.77 51.695 103.839L51.38 104.117C50.4048 104.979 49.2468 105.663 47.9721 106.13C46.6974 106.597 45.3311 106.837 43.9512 106.837C42.5714 106.837 41.2051 106.597 39.9304 106.13C38.6557 105.663 37.4977 104.979 36.5225 104.117C35.5462 103.256 34.7718 102.233 34.2434 101.108C33.715 99.982 33.443 98.7754 33.443 97.5568C33.443 96.3382 33.715 95.1316 34.2434 94.0059C34.7718 92.8802 35.5462 91.8575 36.5225 90.9964L36.8375 90.7182C38.0478 89.6255 38.8597 88.2376 39.1685 86.7336C39.4773 85.2296 39.2689 83.6784 38.57 82.28C37.9045 80.9087 36.7995 79.7392 35.3909 78.9154C33.9824 78.0917 32.3319 77.6496 30.6425 77.6436H29.75C26.9652 77.6436 24.2945 76.6667 22.3254 74.9277C20.3562 73.1887 19.25 70.8302 19.25 68.3709C19.25 65.9116 20.3562 63.5531 22.3254 61.8141C24.2945 60.0751 26.9652 59.0982 29.75 59.0982H30.2225C31.9602 59.0623 33.6455 58.5655 35.0593 57.6725C36.4731 56.7795 37.55 55.5316 38.15 54.0909C38.8489 52.6925 39.0573 51.1413 38.7485 49.6373C38.4397 48.1333 37.6278 46.7454 36.4175 45.6527L36.1025 45.3745C35.1262 44.5134 34.3518 43.4907 33.8234 42.365C33.295 41.2393 33.023 40.0327 33.023 38.8141C33.023 37.5955 33.295 36.3889 33.8234 35.2632C34.3518 34.1375 35.1262 33.1148 36.1025 32.2536C37.0777 31.3915 38.2357 30.7075 39.5104 30.2409C40.7851 29.7743 42.1514 29.5341 43.5312 29.5341C44.9111 29.5341 46.2774 29.7743 47.5521 30.2409C48.8268 30.7075 49.9848 31.3915 50.96 32.2536L51.275 32.5318C52.5123 33.6007 54.0838 34.3177 55.7869 34.5904C57.49 34.8631 59.2465 34.679 60.83 34.0618H61.25C62.8028 33.4741 64.1271 32.4982 65.0599 31.2543C65.9927 30.0104 66.4933 28.5528 66.5 27.0609V26.2727C66.5 23.8134 67.6062 21.4549 69.5754 19.7159C71.5445 17.9769 74.2152 17 77 17C79.7848 17 82.4555 17.9769 84.4246 19.7159C86.3938 21.4549 87.5 23.8134 87.5 26.2727V26.69C87.5067 28.1819 88.0073 29.6395 88.9401 30.8834C89.8729 32.1273 91.1972 33.1032 92.75 33.6909C94.3335 34.3081 96.09 34.4922 97.7931 34.2195C99.4962 33.9468 101.068 33.2298 102.305 32.1609L102.62 31.8827C103.595 31.0206 104.753 30.3366 106.028 29.87C107.303 29.4033 108.669 29.1632 110.049 29.1632C111.429 29.1632 112.795 29.4033 114.07 29.87C115.344 30.3366 116.502 31.0206 117.477 31.8827C118.454 32.7439 119.228 33.7666 119.757 34.8923C120.285 36.018 120.557 37.2246 120.557 38.4432C120.557 39.6618 120.285 40.8684 119.757 41.9941C119.228 43.1198 118.454 44.1424 117.477 45.0036L117.162 45.2818C115.952 46.3745 115.14 47.7623 114.831 49.2664C114.523 50.7704 114.731 52.3216 115.43 53.72V54.0909C116.096 55.4622 117.201 56.6317 118.609 57.4555C120.018 58.2793 121.668 58.7213 123.357 58.7273H124.25C127.035 58.7273 129.705 59.7042 131.675 61.4432C133.644 63.1822 134.75 65.5407 134.75 68C134.75 70.4593 133.644 72.8178 131.675 74.5568C129.705 76.2958 127.035 77.2727 124.25 77.2727H123.777C122.088 77.2787 120.438 77.7207 119.029 78.5445C117.621 79.3683 116.516 80.5378 115.85 81.9091V81.9091Z" stroke="white" stroke-width="5" stroke-linecap="round" stroke-linejoin="round"/>
</svg>
