<svg width="71" height="75" viewBox="0 0 71 75" fill="none" xmlns="http://www.w3.org/2000/svg">
<path d="M43.4859 3.0708H11.0972C8.94967 3.0708 6.89012 3.80219 5.37161 5.10407C3.85309 6.40595 3 8.17168 3 10.0128V65.5489C3 67.39 3.85309 69.1558 5.37161 70.4576C6.89012 71.7595 8.94967 72.4909 11.0972 72.4909H59.6802C61.8277 72.4909 63.8873 71.7595 65.4058 70.4576C66.9243 69.1558 67.7774 67.39 67.7774 65.5489V23.8968L43.4859 3.0708Z" stroke="#98A2B3" stroke-width="5" stroke-linecap="round" stroke-linejoin="round"/>
<path d="M51.583 55.1357H19.1943" stroke="#98A2B3" stroke-width="5" stroke-linecap="round" stroke-linejoin="round"/>
<path d="M51.583 41.2529H19.1943" stroke="#98A2B3" stroke-width="5" stroke-linecap="round" stroke-linejoin="round"/>
<path d="M27.2915 27.3687H23.2429H19.1943" stroke="#98A2B3" stroke-width="5" stroke-linecap="round" stroke-linejoin="round"/>
<path d="M43.4863 3.0708V23.8968H67.7779" stroke="#98A2B3" stroke-width="5" stroke-linecap="round" stroke-linejoin="round"/>
</svg>
