<svg width="235" height="172" viewBox="0 0 235 172" fill="none" xmlns="http://www.w3.org/2000/svg">
<path d="M161.258 0.424805C146.347 0.424805 133.482 7.89324 125.588 19.2026C138.745 30.7253 146.639 46.5157 146.639 64.6533C146.639 70.8415 145.762 76.3894 144.008 81.9374C149.563 84.2846 155.118 85.9917 161.258 85.9917C185.524 85.9917 205.113 66.7872 205.113 43.3149C205.113 19.8427 185.524 0.638188 161.258 0.638188V0.424805ZM73.5466 21.7632C49.2799 21.7632 29.6912 40.9677 29.6912 64.4399C29.6912 87.9122 49.2799 107.117 73.5466 107.117C97.8133 107.117 117.402 87.9122 117.402 64.4399C117.402 40.9677 97.8133 21.7632 73.5466 21.7632ZM212.422 89.1925C199.85 100.075 182.6 106.69 163.012 107.117C170.906 115.225 175.876 125.041 175.876 135.71V149.793H234.35V114.372C234.35 103.276 225.286 93.6735 212.422 88.9791V89.1925ZM22.3819 110.531C9.51768 115.225 0.454224 124.828 0.454224 135.924V171.345H146.639V135.924C146.639 124.828 137.576 115.225 124.711 110.531C111.555 121.84 93.7201 128.455 73.5466 128.455C53.3731 128.455 35.5386 121.627 22.3819 110.531Z" fill="black"/>
</svg>
